<?xml version="1.0" encoding="UTF-8"?>
<svg id="Layer_1" data-name="Layer 1" xmlns="http://www.w3.org/2000/svg" viewBox="0 0 128 128">
  <defs>
    <style>
      .cls-1 {
        fill: #231f20;
      }

      .cls-1, .cls-2 {
        stroke-width: 0px;
      }

      .cls-2 {
        fill: #f1f2f2;
      }
    </style>
  </defs>
  <rect class="cls-1" width="128" height="128" rx="16.27" ry="16.27"/>
  <g>
    <path class="cls-2" d="M63.13,83.34c-2.14,0-3.71-1.62-3.7-3.83.01-2.22,1.59-3.82,3.74-3.8,2.09.02,3.64,1.62,3.67,3.79.03,2.17-1.57,3.84-3.71,3.84Z"/>
    <path class="cls-2" d="M63.15,76.55c1.72,0,2.86,1.2,2.85,3-.01,1.76-1.21,3-2.89,2.99-1.68,0-2.84-1.24-2.83-3.04,0-1.81,1.12-2.96,2.87-2.95Z"/>
    <path class="cls-2" d="M93.85,74.46c-2.51-1.97-5.3-3.49-8.17-4.87-.47-.23-.68-.35-.27-.91,1.98-2.68,3.11-5.72,3.63-9,.1-.66.26-.85.91-.44,1.79,1.13,3.6,2.25,5.44,3.3,1.95,1.11,4.12.45,5.2-1.5,1.09-1.98.54-3.95-1.46-5.1-2.97-1.7-5.91-3.46-9.02-4.91-.41-.19-.53-.42-.55-.84-.09-1.59-.19-3.18-.32-4.76-.39-4.86-1.26-9.63-3-14.2-3.02-7.93-8.21-13.85-16.24-16.95-7.03-2.71-13.81-2.25-20.07,2.25-2.68,1.92-4.72,4.43-6.37,7.28-.16.28-.2.64-.79.57-1.7-.23-3.43-.24-5.13.1-5.12,1-8.82,3.76-10.72,8.71-1.19,3.1-1.49,6.36-1.62,9.63-.27,7.09-.17,14.17.71,21.23.27,2.14,1.52,3.64,3.4,3.93,2.44.38,4.78-.72,4.21-4.36-.41-2.65-.55-5.33-.72-8.01-.27-4.03-.11-8.05-.03-12.08.06-2.62.15-5.24,1.17-7.72,1.13-2.75,3.65-4.28,6.57-3.96-.88,4.48-.66,8.88.31,13.25.75,3.36,1.75,6.63,3.97,9.36,1.84,2.26,4.18,3.27,7.12,2.7,3.38-.66,5.17-2.92,6.04-6.05.85-3.1.69-6.24.19-9.38-.88-5.54-3.18-10.34-7.58-13.97-.4-.33-.36-.52-.12-.89.52-.78,1.07-1.54,1.71-2.23,3.43-3.68,7.55-5.32,12.56-4.16,5.2,1.21,9.08,4.35,11.91,8.74,3.67,5.67,4.65,12.13,5.11,18.71.03.41-.2.37-.46.37-.87,0-1.74-.07-2.62-.03-8.17.41-14.1,9.63-11.02,17.23,1.35,3.32,3.91,5.5,6.97,7.17,3.34,1.81,6.89,3.18,10.21,5.05,2.54,1.43,4.99,2.98,6.79,5.35,1.73,2.28,2.06,4.74.98,7.4-1.73,4.22-5.04,6.73-9.16,8.27-6.62,2.47-13.48,2.61-20.29,1.24-12.57-2.52-21.65-9.43-26.19-21.72-.75-2.04-2.97-2.95-5.11-2.17-2.02.73-2.81,2.51-2.04,4.69,3.7,10.48,10.7,18.03,20.64,22.82,9.91,4.77,20.32,5.73,31.01,3.36,5.74-1.27,10.9-3.77,14.9-8.22,3.59-3.99,5.01-8.67,4.07-14.01-.76-4.37-3.27-7.6-6.66-10.26ZM51.28,41.47c.46,2,.8,4.03.6,6.1-.07.75-.26,1.47-.63,2.13-.41.72-.83.73-1.35.08-1.15-1.46-1.59-3.22-2.05-4.96-.92-3.46-1.3-6.97-.83-10.54.02-.15.07-.29.13-.58,2.34,2.22,3.45,4.89,4.11,7.77ZM82.52,57.68c-.56,3.19-1.94,6-3.7,8.67-.29.44-.53.59-1.03.27-1.12-.69-2.25-1.35-3.05-2.42-2.28-3.03-.43-7.85,3.43-8.97.57-.17,1.15-.25,1.69-.26.09,0,.12-.01.15-.02,2.73-.23,2.98.08,2.52,2.72Z"/>
  </g>
</svg>